<?xml version="1.0" standalone="no"?>
<!DOCTYPE svg PUBLIC "-//W3C//DTD SVG 1.1//EN" "http://www.w3.org/Graphics/SVG/1.1/DTD/svg11.dtd" >
<svg xmlns="http://www.w3.org/2000/svg" xmlns:xlink="http://www.w3.org/1999/xlink" version="1.1">
<metadata>
Created by FontForge 20190801 at Tue Jul 24 20:13:14 2001
 By Jimmy Wärting
(c) 2001 by Jeffrey N. Levine. Freeware, not for sale.
</metadata>
<defs>
<font id="SansPoster3DBoldJL" horiz-adv-x="420" >
  <font-face 
    font-family="Sans Poster Bold 3D JL"
    font-weight="400"
    font-stretch="normal"
    units-per-em="1000"
    panose-1="0 0 4 0 0 0 0 0 0 0"
    ascent="800"
    descent="-200"
    x-height="813"
    cap-height="825"
    bbox="-69 -214 1147 1041"
    underline-thickness="20"
    underline-position="-143"
    unicode-range="U+0020-201D"
  />
<missing-glyph horiz-adv-x="600" 
d="M272 88h128v769h-128v-769zM88 1041h425v-6l72 -72v-1060h-419l-72 72h-6v1066zM113 0h375v1016h-375v-1016zM175 63v891h250v-891h-250z" />
    <glyph glyph-name=".notdef" horiz-adv-x="600" 
d="M272 88h128v769h-128v-769zM88 1041h425v-6l72 -72v-1060h-419l-72 72h-6v1066zM113 0h375v1016h-375v-1016zM175 63v891h250v-891h-250z" />
    <glyph glyph-name=".null" horiz-adv-x="0" 
 />
    <glyph glyph-name="nonmarkingreturn" 
 />
    <glyph glyph-name="space" unicode=" " 
 />
    <glyph glyph-name="space" unicode="&#xa0;" 
 />
    <glyph glyph-name="exclam" unicode="!" horiz-adv-x="628" 
d="M424 856l73 -73l-91 -628h-41l35 -35q15 -15 26 -36t19 -49q-5 -141 -134 -146h-7q-59 0 -94 35l-56 56q-54 32 -67 120l1 11q15 74 65 102l-13 14h-6l-86 634h377zM112 104q20 -118 117 -118h7q108 4 112 122q-27 97 -104 97q-3 0 -6 -0.5t-6 -0.5h-12q-86 0 -108 -100z
M396 836h-320l80 -584h156z" />
    <glyph glyph-name="quotedbl" unicode="&#x22;" horiz-adv-x="641" 
d="M121 407h-6l-55 306q1 128 125 128h3q77 -2 107 -51l27 -27q24 78 112 78q80 0 110 -53l58 -57q34 -34 34 -106v-10l-52 -280h-138l-72 72h-6l-11 57l-21 -129h-143zM242 432l47 282q0 100 -101 102h-3q-99 0 -100 -98l52 -286h105zM490 432l49 268q0 116 -105 116
q-89 0 -96 -102l52 -282h100z" />
    <glyph glyph-name="numbersign" unicode="#" horiz-adv-x="884" 
d="M447 337h30v34h-30v-34zM751 337h68v-6l72 -72v-192h-144v-164h-192l-72 72h-6v92h-30v-164h-200l-72 72h-6v88h-66l-72 72h-6v198h144v38h-66l-72 72h-6v194h144v188h206v-6l72 -72v-110h30v188h202v-6l72 -72v-110h68v-6l72 -72v-192h-140v-30zM502 312h-152v156h152
v-156zM502 164v-164h148v164h144v148h-140v152h140v148h-140v188h-152v-188h-152v188h-156v-188h-144v-144h144v-160h-144v-148h144v-160h156v164h152z" />
    <glyph glyph-name="dollar" unicode="$" horiz-adv-x="809" 
d="M683 775l72 -72v-269q-68 41 -117.5 60.5t-80.5 19.5q-9 0 -17.5 -2t-18.5 -5q3 -1 5.5 -2t5.5 -2q100 -47 144 -107l50 -49q61 -61 61 -143v-12q-10 -195 -232 -204v-85h-160l-72 72h-6v18q-59 12 -122 47l-68 67q-2 2 -5 3t-5 3v273q142 -78 205 -78q26 0 37 4
q-47 23 -83.5 46.5t-62.5 49.5l-44 43q-94 73 -94 163q0 150 230 228v79h162v-6l72 -72v-11q33 -9 69 -22t75 -30v-5zM658 764q-122 54 -216 60v72h-112v-72q-230 -71 -230 -210q0 -108 162 -190q130 -66 130 -104q0 -37 -70 -37q-68 0 -180 61v-216q94 -49 190 -49h11v-79
h115v84q223 0 232 184v11q0 124 -168 201q-117 52 -117 89q0 10 7 18t18 13t24.5 8t27.5 3q69 0 176 -63v216z" />
    <glyph glyph-name="percent" unicode="%" horiz-adv-x="669" 
d="M455 321q72 -21 105 -70l54 -54q43 -43 43 -116v-11q-8 -159 -151 -181l-8 1q-74 17 -112 55l-51 51q-9 5 -16 11l-44 -104h-182l-72 72h-8l180 434q-49 17 -77 46l-51 51q-72 48 -72 146q0 166 167 186q92 -19 130 -78l34 -35l42 100h202l-3 -6l73 -72zM424 78
q-36 0 -52 58q0 50 52 74q45 -25 46 -74q-10 -42 -46 -58zM428 -14q126 19 132 160v10q0 119 -132 146q-140 -17 -140 -160q0 -124 140 -156zM154 588q-36 0 -52 58q0 50 52 74q45 -25 46 -74q-10 -42 -46 -58zM158 496q126 19 132 160v10q0 119 -132 146
q-140 -17 -140 -160q0 -124 140 -156zM50 0h136l344 800h-148z" />
    <glyph glyph-name="ampersand" unicode="&#x26;" horiz-adv-x="938" 
d="M428 153q1 -3 4 -4l-4 4v0zM126 -39q-79 56 -109 181v18q0 156 125 230l-6 7q-88 70 -88 178v3q4 292 365 292q126 0 302 -37v-6l72 -72v-295q-142 38 -204 40l72 -74v-21h196v-6l72 -72v-472h-264l-31 31q-141 -49 -247 -49q-131 0 -206 75zM602 208q-101 -30 -165 -30
q-80 0 -107 46q11 83 162 83q30 0 66 -3v176q-128 4 -128 70v8q4 39 75 39q63 0 185 -33v248q-159 33 -277 33q-336 0 -340 -267v-3q0 -120 121 -187q-152 -61 -152 -228v-16q51 -210 264 -210q124 0 300 70v-52h220v428h-224v-172z" />
    <glyph glyph-name="quotesingle" unicode="'" horiz-adv-x="453" 
d="M68 419h-8l86 126l-21 21q-59 42 -60 108v10q0 144 145 153q99 -6 133 -62l59 -58q34 -34 34 -98q0 -24 -6.5 -51t-22.5 -60t-42 -72.5t-65 -88.5h-160zM214 444q59 78 91.5 132.5t32.5 94.5v3q0 65 -27 99.5t-101 38.5q-120 -8 -120 -128v-9q3 -78 96 -115l-80 -116h108
z" />
    <glyph glyph-name="parenleft" unicode="(" horiz-adv-x="362" 
d="M269 92q1 -2 5 -6zM328 32q4 -4 6 -5zM21 366q0 492 270 557v-7l72 -72v-223q-84 -9 -84 -196v-200q0 -122 42 -183l38 -37v-219q-70 14 -120 64l-50 50q-39 29 -70.5 81t-53 115t-33 131t-11.5 131v8zM46 366q0 -138 49 -278q63 -180 167 -200v180q-80 56 -80 232v200
q0 207 84 216v176q-220 -52 -220 -526z" />
    <glyph glyph-name="parenright" unicode=")" horiz-adv-x="394" 
d="M31 -142q-4 0 -6 -1v224q80 56 80 219v200q0 85 -18 133l-58 58q-2 1 -4 1t-4 1v230q98 -24 161 -104l48 -48q133 -135 133 -480q0 -71 -12 -142t-38 -143q-67 -193 -210 -220zM266 366q0 474 -220 526v-176q84 -9 84 -216v-200q0 -176 -80 -232v-180q104 20 167 200
q49 140 49 278z" />
    <glyph glyph-name="asterisk" unicode="*" horiz-adv-x="447" 
d="M153 545l-26 26l-2 -2l-91 91l51 22l-39 41l-10 4l90 97l27 -27v48h118v-6l24 -24l22 21l6 -13l68 -67l56 -106l-43 -18l46 -46l-65 -94l-42 36v-65h-112l-72 72h-6v10zM178 560h68v92l60 -52l36 52l-96 44l96 40l-32 60l-64 -60v84h-68v-84l-52 52l-48 -52l100 -40
l-100 -44l48 -48l52 48v-92z" />
    <glyph glyph-name="plus" unicode="+" horiz-adv-x="701" 
d="M37 597h212v220h190v-6l72 -72v-138h140v-6l72 -72v-184h-212v-219h-184l-72 72h-6v147h-134l-72 72h-6v186zM274 572h-212v-136h212v-219h140v219h212v140h-212v216h-140v-220z" />
    <glyph glyph-name="comma" unicode="," horiz-adv-x="465" 
d="M231 273q90 -3 126 -63l55 -54q37 -37 39 -113v-2q0 -80 -135 -250h-160l-72 72h-8l86 127l-19 19q-60 42 -62 109v9q0 137 148 146h2zM230 248q-124 -7 -124 -121v-8q3 -78 96 -115l-80 -116h108q124 156 124 228v2q-1 125 -124 130z" />
    <glyph glyph-name="hyphen" unicode="-" horiz-adv-x="584" 
d="M113 513h386v-6l72 -72v-196h-380l-72 72h-6v202zM138 336h336v152h-336v-152z" />
    <glyph glyph-name="hyphen" unicode="&#x2010;" horiz-adv-x="584" 
d="M113 513h386v-6l72 -72v-196h-380l-72 72h-6v202zM138 336h336v152h-336v-152z" />
    <glyph glyph-name="period" unicode="." horiz-adv-x="457" 
d="M231 273q92 -3 127 -59l57 -57q36 -36 36 -106v-9q-2 -57 -36.5 -92t-102.5 -51q-74 12 -112 50l-58 57q-54 40 -61 110q0 148 148 157h2zM230 248q-124 -7 -124 -129q12 -104 132 -123q113 26 116 122v8q0 117 -124 122z" />
    <glyph glyph-name="slash" unicode="/" horiz-adv-x="600" 
d="M369 825h195l-3 -6l73 -72l-359 -844h-183l-72 72h-8zM50 0h136l340 800h-140z" />
    <glyph glyph-name="zero" unicode="0" horiz-adv-x="952" 
d="M466 343q54 19 54 62q0 4 -1 9v6q-53 -19 -53 -73v-4zM71 408q0 416 377 457q202 -12 306 -147l41 -41q109 -110 132 -327q-26 -389 -388 -447q-164 21 -261 118l-41 41q-136 104 -166 327v19zM456 521q88 -19 88 -97v-5q1 -5 1 -14q0 -69 -92 -92q-82 25 -84 106v3
q0 79 87 99zM96 392q48 -352 367 -392q343 55 367 424q-41 397 -381 416q-353 -39 -353 -432v-16z" />
    <glyph glyph-name="one" unicode="1" horiz-adv-x="529" 
d="M447 825v-6l72 -72v-844h-316l-72 72h-6v540h-22l-72 72h-6v238h422zM50 800v-188h100v-612h272v800h-372z" />
    <glyph glyph-name="two" unicode="2" horiz-adv-x="848" 
d="M101 239q72 59 122 105t81 81q-28 -5 -60.5 -13.5t-72.5 -19.5l-73 72q-2 0 -2.5 -0.5t-2.5 -0.5v320q195 52 328 52q209 0 295 -117l50 -49q37 -37 59 -92.5t22 -127.5q0 -48 -32 -94t-88 -94h40v-6l72 -72v-280h-660l-72 72h-6v264zM126 0h616v236h-284
q285 149 292 288q-10 286 -329 286q-129 0 -303 -46v-268q130 37 196 37q60 0 60 -33q0 -68 -248 -272v-228z" />
    <glyph glyph-name="three" unicode="3" horiz-adv-x="849" 
d="M101 289q46 -14 84 -23t70 -14l-25 26q-2 -1 -5 -1v163q-13 -3 -26.5 -6.5t-27.5 -6.5l-73 72q-2 0 -2.5 -0.5t-2.5 -0.5v314q151 27 266 27q258 0 361 -141l43 -43q62 -62 83 -157v-3q0 -108 -102 -165l47 -46q53 -53 56 -136q-35 -253 -365 -253q-118 0 -303 41l-71 70
q-2 1 -4 1q-1 0 -3 1v281zM126 28q160 -36 281 -36q311 0 343 233q-4 127 -148 175q147 49 147 170v2q-54 242 -390 242q-106 0 -241 -24v-259q100 27 171 27q102 0 145 -58q-32 -53 -133 -53q-24 0 -51 3v-144q23 4 43.5 6t37.5 2q85 0 111 -47q-24 -47 -112 -47
q-77 0 -204 36v-228z" />
    <glyph glyph-name="four" unicode="4" horiz-adv-x="980" 
d="M433 59h-306l-72 72h-6v273l300 421h398v-6l72 -72v-326h60v-6l72 -72v-276h-136v-164h-304l-72 72h-6v84zM462 400h-112l112 156v-156zM458 0h260v164h136v232h-132v404h-360l-288 -404v-240h384v-156z" />
    <glyph glyph-name="five" unicode="5" horiz-adv-x="903" 
d="M101 281q66 -15 118 -24.5t92 -12.5l-47 47h-3l-156 156v376h650v-6l72 -72v-276h-118q24 -20 42 -42l53 -53q63 -63 63 -166q0 -160 -107 -239t-312 -79q-57 0 -124 6.5t-145 19.5l-71 71q-2 0 -3.5 0.5t-3.5 0.5v293zM126 10q69 -11 130.5 -17t116.5 -6q195 0 296 73.5
t101 222.5q0 231 -356 243v40h316v232h-600v-340l140 -140q29 5 53.5 8t44.5 3q91 0 98 -55q-5 -57 -114 -57q-84 0 -226 33v-240z" />
    <glyph glyph-name="six" unicode="6" horiz-adv-x="901" 
d="M843 432q-32 14 -60 26.5t-54 23.5q12 -12 21 -27l49 -48q72 -72 72 -206q0 -152 -92 -232t-265 -80h-22q-182 5 -282 106l-47 47q-143 111 -158 378q46 438 431 438q68 0 151.5 -15t183.5 -47v-5l72 -72v-287v0zM370 318q48 20 76 20q25 0 40 -16t15 -40q0 -31 -43 -50
q-12 -5 -21 -5q-45 0 -67 91zM774 276q0 266 -309 266q-18 0 -36.5 -1t-38.5 -3q8 83 99 83q90 0 257 -79v236q-174 55 -310 55q-363 0 -406 -414q24 -423 388 -433h21q161 0 248 73t87 217z" />
    <glyph glyph-name="seven" unicode="7" horiz-adv-x="785" 
d="M55 519h-6v306h662v-6l72 -72v-243l-276 -601h-347l-72 72h-8l205 472h-158zM686 584v216h-612v-256h280l-236 -544h300z" />
    <glyph glyph-name="eight" unicode="8" horiz-adv-x="908" 
d="M2 236q0 120 116 204q-85 79 -85 173v19q83 245 366 245h10q236 -5 327 -127l50 -49q65 -65 79 -177q-17 -109 -91 -167l37 -37q69 -69 69 -162q-20 -131 -126.5 -199.5t-301.5 -68.5q-192 0 -287 95l-49 49q-90 67 -114 202zM159 438q-132 -80 -132 -197
q45 -254 350 -254q186 0 287 64t119 185q0 116 -128 194q96 53 113 169q-28 247 -359 253h-10q-266 0 -341 -225v-14q0 -96 101 -175zM438 488q-72 31 -102 80q10 48 79 55q83 -3 95 -67q0 -34 -72 -68zM382 340q93 -17 112 -80q-12 -52 -92 -64q-64 12 -96 56q8 56 76 88z
" />
    <glyph glyph-name="nine" unicode="9" horiz-adv-x="900" 
d="M49 549q0 153 94 232.5t266 79.5h21q214 -6 317 -142l42 -42q112 -112 126 -346q-47 -432 -428 -432q-135 0 -332 62l-71 71q-3 0 -7 2v290q64 -30 117 -51l-46 47q-99 70 -99 229zM474 494q-36 -21 -61 -21q-20 0 -35.5 18.5t-15.5 48.5q0 20 14 32.5t43 12.5
q51 0 55 -91zM74 549q0 -264 309 -264q18 0 36.5 1t38.5 3q-7 -82 -99 -82q-89 0 -257 78v-233q177 -56 310 -56q362 0 406 411q-24 420 -388 429h-21q-163 0 -249 -73.5t-86 -213.5z" />
    <glyph glyph-name="colon" unicode=":" horiz-adv-x="448" 
d="M146 395q-54 35 -73 111q7 74 46.5 112t110.5 43q94 -16 127 -71l57 -56q33 -33 33 -85v-9q-8 -128 -146 -141q-62 4 -102 44zM227 277q93 -6 129 -64l56 -56q39 -39 39 -114q0 -126 -151 -149q-60 10 -96 46l-54 54q-60 39 -69 124q2 71 38 110t104 49h4zM226 252
q-116 -17 -120 -133q12 -108 120 -127q128 20 128 126q0 126 -128 134zM350 524q0 90 -124 112q-116 -8 -128 -128q29 -105 128 -112q118 12 124 120v8z" />
    <glyph glyph-name="semicolon" unicode=";" horiz-adv-x="451" 
d="M136 399q-51 33 -63 106q5 139 159 161q93 -18 130 -73l56 -56q37 -37 37 -98v-2q-2 -125 -154 -138q-71 7 -109 45zM229 281q94 0 129 -59l57 -56q36 -36 36 -108v-16q-2 -46 -36 -108t-99 -143h-160l-72 72h-8l86 127l-19 19q-60 42 -62 109v10q0 152 145 153h3z
M226 256q-120 -2 -120 -128v-9q3 -78 96 -115l-80 -116h108q120 150 124 230v15q0 123 -125 123h-3v0zM358 514q0 102 -128 126q-128 -20 -132 -132q16 -100 128 -112q130 12 132 116v2z" />
    <glyph glyph-name="less" unicode="&#x3c;" horiz-adv-x="912" 
d="M867 849l72 -72v-170l-506 -253l434 -214v-5l72 -72v-178l-862 439l-67 67l-15 8l872 458v-8zM842 816l-792 -416l792 -404v128l-576 284l576 288v120z" />
    <glyph glyph-name="equal" unicode="=" horiz-adv-x="670" 
d="M603 765v-6l72 -72v-180h-64l64 -64v-180h-572l-72 72h-6v186h63l-58 58h-6l6 186h573zM54 740l-4 -136h528v136h-524zM50 496v-136h528v136h-528z" />
    <glyph glyph-name="greater" unicode="&#x3e;" horiz-adv-x="901" 
d="M25 857l872 -458l-5 -3l73 -72l-862 -439l-72 73l-6 -3v185l509 251l-431 216l-68 68l-10 5v177zM50 696l576 -288l-576 -284v-128l792 404l-792 416v-120z" />
    <glyph glyph-name="question" unicode="?" horiz-adv-x="820" 
d="M98 499q-2 0 -3 -0.5t-2 -0.5v320q190 58 317 58q45 0 89.5 -9.5t85 -27.5t75.5 -45t62 -61l46 -46q71 -71 71 -168q0 -53 -21.5 -99.5t-59.5 -82.5t-89.5 -60.5t-111.5 -32.5q-4 -5 -5 -11t-1 -13q0 -23 32 -77h-75l35 -35q32 -32 32 -75q0 -29 -10.5 -55t-28.5 -46
t-42.5 -31.5t-52.5 -11.5q-66 0 -107 41l-55 55q-29 18 -45.5 48.5t-16.5 70.5q0 55 42 88l-22 23h-5q-11 38 -16.5 69.5t-5.5 57.5q0 42 14 101l-26 -8t-27 -8zM242 104q0 -54 35 -86t89 -32q25 0 45.5 10t35.5 27t23 39t8 46q0 20 -10 37.5t-26 30.5t-37 20.5t-43 7.5
q-23 0 -44.5 -7.5t-38.5 -21t-27 -32t-10 -39.5zM470 240q-16 28 -16 55q0 26 16 45q57 6 107 28t86.5 56t57.5 77.5t21 92.5q0 54 -27.5 101t-73.5 81.5t-106 54.5t-125 20q-123 0 -292 -51v-268q151 48 239 48q44 0 74.5 -13.5t30.5 -39.5q0 -53 -216 -99q-11 -44 -11 -86
q0 -51 15 -102h220z" />
    <glyph glyph-name="at" unicode="@" horiz-adv-x="955" 
d="M120 837h281l1 -8l71 -70l11 -50h423v-6l72 -72v-188h-140v-384h-204l-72 72h-6v72h-124l-72 72h-6l-4 16h-67l-23 -88h-200l-72 72h-7zM262 640l48 -136h-88zM14 300h155l23 88h161l22 -88h159l-76 236h124v-380h160v384h140v144h-472l-29 128h-241z" />
    <glyph glyph-name="A" unicode="A" horiz-adv-x="993" 
d="M312 824h380l2 -7l71 -71l241 -837h-335l-72 72h-5l-16 42h-50l-39 -112h-370l-72 72h-7zM498 460l60 -164h-112zM74 8h324l40 112h132l42 -114h290l-228 793h-344z" />
    <glyph glyph-name="B" unicode="B" horiz-adv-x="888" 
d="M435 208q10 7 10 22v4q-3 30 -61 33l51 -50v-9zM21 825h437q186 0 265 -109l50 -49q61 -62 78 -171v-14q0 -106 -64 -156l36 -36q49 -49 49 -140q0 -76 -48 -131.5t-127 -83.5q-89 -32 -252 -32h-346l-72 72h-6v850zM338 292q7 1 13 1h13q101 0 106 -57v-6q0 -58 -82 -58
q-11 0 -23.5 1t-26.5 3v116zM330 572q10 1 19.5 1.5t17.5 0.5q84 0 95 -50q-3 -65 -81 -65q-11 0 -24 1.5t-27 3.5v108zM46 0h324q96 0 167 12t120 36.5t77.5 62t39.5 89.5q1 7 1 13v12q0 140 -129 167q108 34 108 165v11q-34 232 -296 232h-412v-800z" />
    <glyph glyph-name="C" unicode="C" horiz-adv-x="830" 
d="M5 411q66 422 451 422q63 0 139.5 -13t167.5 -40v-5l72 -72v-345q-83 41 -144.5 61.5t-103.5 20.5q-116 0 -143 -134q3 -8 6.5 -14.5t7.5 -13.5q40 -23 91 -23q72 0 210 65v-8l72 -72v-326q-128 -21 -225 -21q-260 0 -392 132l-46 45q-136 109 -163 335v6zM30 408
q49 -418 501 -418q93 0 203 18v272q-106 -50 -185 -50q-140 0 -203 150q28 157 166 157q88 0 226 -68v293q-156 46 -282 46q-363 0 -426 -400z" />
    <glyph glyph-name="D" unicode="D" horiz-adv-x="955" 
d="M463 400v-78q47 16 53 73q-11 2 -22 3.5t-25 1.5h-6zM55 -25h-6v850h313q284 0 409 -164l40 -40q103 -103 124 -291q-27 -427 -474 -427h-334zM386 0q426 0 452 404q-44 396 -476 396h-288v-800h312zM366 496q7 1 14 1h14q122 0 148 -101q-8 -107 -132 -107q-22 0 -44 3
v204z" />
    <glyph glyph-name="E" unicode="E" horiz-adv-x="853" 
d="M55 -25h-6v858h730v-6l72 -72v-304h-48l4 -4v-220l36 -36v-288h-716zM710 292v208h-328v48h372v260h-680v-808h672v244h-364v48h328z" />
    <glyph glyph-name="F" unicode="F" horiz-adv-x="847" 
d="M55 -25h-6v858h730v-6l72 -72v-304h-48l4 -4v-252h-328v-292h-352zM710 292v208h-328v48h372v260h-680v-808h308v292h328z" />
    <glyph glyph-name="G" unicode="G" horiz-adv-x="918" 
d="M23 370q0 224 119 342.5t343 118.5q115 0 268 -33v-6l72 -72v-308q-144 50 -220 50q-142 0 -151 -146q1 -20 6 -37q9 -3 19 -4t21 -1h11v125h319v-6l72 -72v-418h-307l-18 18q-31 -9 -60 -14t-57 -5q-138 0 -244 106l-40 40q-4 2 -5 4q-148 121 -148 318zM48 370
q0 -187 139 -299q88 -72 198 -72q74 0 157 33v-32h263v374h-269v-123q-10 -1 -19 -1.5t-17 -0.5q-130 0 -143 142q10 168 173 168q80 0 198 -41v259q-137 29 -243 29q-212 0 -324.5 -112t-112.5 -324z" />
    <glyph glyph-name="H" unicode="H" horiz-adv-x="953" 
d="M477 541h66v284h328v-6l72 -72v-844h-320l-72 72h-6v188h-60v-260h-346l-72 72h-6v850h344v-6l72 -72v-206zM570 260v-260h276v800h-278v-284h-188v284h-294v-800h302v260h182z" />
    <glyph glyph-name="I" unicode="I" horiz-adv-x="509" 
d="M407 825v-6l72 -72v-844h-328l-72 72h-6v850h334zM98 800v-800h284v800h-284z" />
    <glyph glyph-name="J" unicode="J" horiz-adv-x="804" 
d="M723 833v-6l72 -72v-596q-14 -145 -109 -211t-267 -66q-111 0 -232 49l-70 69l-4 2l-4 2v323q125 -49 186 -49q79 0 102 67v488h326zM422 808v-466q-27 -89 -127 -89q-66 0 -161 37v-270q100 -41 210 -41q160 0 250 60.5t104 196.5v572h-276z" />
    <glyph glyph-name="K" unicode="K" horiz-adv-x="910" 
d="M463 48v-145h-336l-72 72h-6v850h338v-6l72 -72v-18l60 96h352l-4 -6l73 -72l-250 -411l249 -433h-354l-72 72h-5zM522 0h304l-236 412l236 388h-292l-172 -272v272h-288v-800h292v256z" />
    <glyph glyph-name="L" unicode="L" horiz-adv-x="785" 
d="M723 275l72 -72v-300h-668l-72 72h-6v850h326v-6l72 -72v-466h276v-6zM698 256h-348v544h-276v-800h624v256z" />
    <glyph glyph-name="M" unicode="M" horiz-adv-x="1132" 
d="M456 747l108 -199l148 277h338v-6l72 -72v-844h-312l-44 44l-17 -44h-238l-68 68v-68h-316l-72 72h-6v850h334l6 -11zM450 0h208l99 260v-260h268v800h-298l-178 -332l-181 332h-294v-800h272v260z" />
    <glyph glyph-name="N" unicode="N" horiz-adv-x="941" 
d="M435 109v-206h-308l-72 72h-6v850h352l8 -13l65 -65l91 -148v226h294v-6l72 -72v-844h-338l-72 72h-5zM530 0h304v800h-244v-332l-204 332h-312v-800h264v320z" />
    <glyph glyph-name="O" unicode="O" horiz-adv-x="987" 
d="M571 417q0 18 -8.5 19.5t-19.5 3.5q-106 -19 -106 -103v-2q0 -17 4.5 -22t21.5 -9q109 27 109 91q0 5 -1 10v12zM11 392q0 417 440 459q248 -12 368 -161l46 -46q108 -109 132 -308q-30 -389 -453 -447q-212 22 -327 138l-45 44q-128 104 -161 304v17zM468 538
q128 -23 128 -121v-7q1 -5 1 -15q0 -89 -133 -117q-123 33 -124 132v2q0 102 128 126zM36 378q55 -351 432 -392q403 55 432 424q-48 397 -448 416q-416 -40 -416 -434v-14z" />
    <glyph glyph-name="P" unicode="P" horiz-adv-x="849" 
d="M55 -25h-6v850h325q261 0 354 -130l47 -47q76 -76 76 -211v-21q-14 -304 -408 -305v-208h-316zM346 0v208h16q380 0 392 284v20q0 288 -380 288h-300v-800h272zM342 544h13q117 0 123 -52q-5 -53 -108 -53h-14q-6 0 -14 1v104z" />
    <glyph glyph-name="Q" unicode="Q" horiz-adv-x="1007" 
d="M593 382q-2 17 -6.5 25.5t-26.5 10.5q-97 -14 -105 -107q2 -16 10 -20t21 -9q97 22 107 100zM49 377q20 431 433 464q246 -26 358 -171l41 -41q0 1 -1 1v0l3 -2q119 -119 124 -345q-6 -60 -21.5 -109t-42.5 -90l36 -33l-2 -2l73 -73l-176 -150l-73 73l-2 -2l-23 28
q-41 -23 -96.5 -34.5t-128.5 -11.5q-204 24 -309 129l-47 46q-134 108 -146 321v2zM486 516q127 -19 132 -136q-12 -100 -132 -124q-108 32 -128 128q7 115 128 132zM74 376q20 -356 404 -400q165 0 240 60l84 -104l140 120l-108 100q64 79 76 208q-7 412 -428 456
q-388 -31 -408 -440z" />
    <glyph glyph-name="R" unicode="R" horiz-adv-x="887" 
d="M85 -25h-6v863h284q276 0 387 -150l44 -43q80 -80 98 -215q-7 -206 -151 -257l183 -270h-328l-72 72h-4l-31 46v-118h-332zM392 0v209l140 -209h276l-176 261q155 34 163 242q-42 310 -432 310h-259v-813h288zM388 537q8 1 14.5 1.5t13.5 0.5q80 0 88 -59
q-17 -62 -90 -62q-6 0 -12.5 0.5t-13.5 1.5v117z" />
    <glyph glyph-name="S" unicode="S" horiz-adv-x="819" 
d="M725 784l72 -72v-294q-126 52 -175 52q-27 0 -28 -15q38 -22 65.5 -41t48.5 -48l50 -49q67 -67 67 -175v-21q-40 -232 -379 -232q-96 0 -231 21l-71 71q-3 1 -7 1l-2 328q166 -72 226 -72h11t11 2q-56 25 -95 64l-48 48q-52 38 -75 89.5t-23 117.5q0 268 313 268
q53 0 120.5 -9.5t149.5 -27.5v-6zM700 770q-143 32 -245 32q-288 0 -288 -243q0 -80 38 -136t121 -91q103 -43 103 -79q0 -19 -21.5 -29.5t-46.5 -10.5q-69 0 -201 58l2 -267q115 -18 209 -18q320 0 357 214v17q0 138 -120 203q-111 58 -111 108q0 39 50 39q49 0 153 -42
v245z" />
    <glyph glyph-name="T" unicode="T" horiz-adv-x="846" 
d="M783 827l72 -72v-308h-217v-544h-323l-72 72h-6v472h-134l-72 72h-6v314h758v-6zM758 808h-708v-264h212v-544h279v544h217v264z" />
    <glyph glyph-name="U" unicode="U" horiz-adv-x="924" 
d="M827 829v-6l72 -72v-514q0 -185 -91.5 -280t-269.5 -95q-184 0 -281 97l-49 48q-114 89 -135 283v539h326v-6l72 -72v-499q30 7 42 46v531h314zM538 804v-508q-17 -70 -82 -70h-3q-64 1 -79 70v508h-276v-512q37 -333 365 -333q168 0 253.5 89.5t85.5 263.5v492h-264z
" />
    <glyph glyph-name="V" unicode="V" horiz-adv-x="974" 
d="M376 825l2 -7l71 -71l65 -226l85 304h324l-2 -6l73 -72l-253 -844h-352l-72 72h-5l-276 850h340zM70 800l260 -800h320l240 800h-272l-128 -460l-132 460h-288z" />
    <glyph glyph-name="W" unicode="W" horiz-adv-x="1098" 
d="M303 821l2 -7l71 -71l8 -34l29 108h199l2 -8l68 -69l18 81h332l-2 -6l73 -72l-203 -840h-261l-72 72h-5l-9 24l-25 -96h-262l-72 72h-5l-217 846h331zM360 516l-76 280h-280l204 -796h228l64 236l80 -236h228l192 796h-280l-60 -276l-68 272h-160z" />
    <glyph glyph-name="X" unicode="X" horiz-adv-x="947" 
d="M348 825l7 -13l66 -65l36 -61l93 139h362l-4 -6l73 -72l-274 -422l266 -422h-373l-72 72h-5l-34 52l-79 -124h-350l-72 72h-9l273 429l-284 421h380zM14 800l268 -396l-256 -404h296l108 168l108 -168h320l-252 400l260 400h-304l-120 -180l-108 180h-320z" />
    <glyph glyph-name="Y" unicode="Y" horiz-adv-x="944" 
d="M309 825l6 -12l67 -66l39 -70l91 148h345l-3 -5l73 -73l-288 -508v-336h-304l-72 72h-6v340l-326 510h378zM-22 800l304 -476v-324h260v320l272 480h-288l-120 -196l-112 196h-316z" />
    <glyph glyph-name="Z" unicode="Z" horiz-adv-x="898" 
d="M819 813v-6l72 -72v-268l-194 -194h102v-6l72 -72v-292h-712l-72 72h-6v280l200 200h-130l-72 72h-6v286h746zM98 788v-236h316l-308 -308v-244h668v248h-284l304 304v236h-696z" />
    <glyph glyph-name="backslash" unicode="\" horiz-adv-x="627" 
d="M210 816l70 -69l354 -844h-183l-72 72h-5l-362 850h195zM190 800h-140l340 -800h136z" />
    <glyph glyph-name="underscore" unicode="_" horiz-adv-x="1184" 
d="M1075 25v-6l72 -72v-124h-1044l-72 72h-6v130h1050zM50 0v-80h1000v80h-1000z" />
    <glyph glyph-name="a" unicode="a" horiz-adv-x="993" 
d="M312 824h380l2 -7l71 -71l241 -837h-335l-72 72h-5l-16 42h-50l-39 -112h-370l-72 72h-7zM498 460l60 -164h-112zM74 8h324l40 112h132l42 -114h290l-228 793h-344z" />
    <glyph glyph-name="b" unicode="b" horiz-adv-x="849" 
d="M435 208q10 7 10 22v4q-3 30 -61 33l51 -50v-9zM21 825h437q186 0 265 -109l50 -49q61 -62 78 -171v-14q0 -106 -64 -156l36 -36q49 -49 49 -140q0 -76 -48 -131.5t-127 -83.5q-89 -32 -252 -32h-346l-72 72h-6v850zM338 292q7 1 13 1h13q101 0 106 -57v-6q0 -58 -82 -58
q-11 0 -23.5 1t-26.5 3v116zM330 572q10 1 19.5 1.5t17.5 0.5q84 0 95 -50q-3 -65 -81 -65q-11 0 -24 1.5t-27 3.5v108zM46 0h324q96 0 167 12t120 36.5t77.5 62t39.5 89.5q1 7 1 13v12q0 140 -129 167q108 34 108 165v11q-34 232 -296 232h-412v-800z" />
    <glyph glyph-name="c" unicode="c" horiz-adv-x="835" 
d="M5 411q66 422 451 422q63 0 139.5 -13t167.5 -40v-5l72 -72v-345q-83 41 -144.5 61.5t-103.5 20.5q-116 0 -143 -134q3 -8 6.5 -14.5t7.5 -13.5q40 -23 91 -23q72 0 210 65v-8l72 -72v-326q-128 -21 -225 -21q-260 0 -392 132l-46 45q-136 109 -163 335v6zM30 408
q49 -418 501 -418q93 0 203 18v272q-106 -50 -185 -50q-140 0 -203 150q28 157 166 157q88 0 226 -68v293q-156 46 -282 46q-363 0 -426 -400z" />
    <glyph glyph-name="d" unicode="d" horiz-adv-x="901" 
d="M463 400v-78q47 16 53 73q-11 2 -22 3.5t-25 1.5h-6zM55 -25h-6v850h313q284 0 409 -164l40 -40q103 -103 124 -291q-27 -427 -474 -427h-334zM386 0q426 0 452 404q-44 396 -476 396h-288v-800h312zM366 496q7 1 14 1h14q122 0 148 -101q-8 -107 -132 -107q-22 0 -44 3
v204z" />
    <glyph glyph-name="e" unicode="e" horiz-adv-x="869" 
d="M55 -25h-6v858h730v-6l72 -72v-304h-48l4 -4v-220l36 -36v-288h-716zM710 292v208h-328v48h372v260h-680v-808h672v244h-364v48h328z" />
    <glyph glyph-name="f" unicode="f" horiz-adv-x="847" 
d="M55 -25h-6v858h730v-6l72 -72v-304h-48l4 -4v-252h-328v-292h-352zM710 292v208h-328v48h372v260h-680v-808h308v292h328z" />
    <glyph glyph-name="g" unicode="g" horiz-adv-x="918" 
d="M23 370q0 224 119 342.5t343 118.5q115 0 268 -33v-6l72 -72v-308q-144 50 -220 50q-142 0 -151 -146q1 -20 6 -37q9 -3 19 -4t21 -1h11v125h319v-6l72 -72v-418h-307l-18 18q-31 -9 -60 -14t-57 -5q-138 0 -244 106l-40 40q-4 2 -5 4q-148 121 -148 318zM48 370
q0 -187 139 -299q88 -72 198 -72q74 0 157 33v-32h263v374h-269v-123q-10 -1 -19 -1.5t-17 -0.5q-130 0 -143 142q10 168 173 168q80 0 198 -41v259q-137 29 -243 29q-212 0 -324.5 -112t-112.5 -324z" />
    <glyph glyph-name="h" unicode="h" horiz-adv-x="953" 
d="M477 541h66v284h328v-6l72 -72v-844h-320l-72 72h-6v188h-60v-260h-346l-72 72h-6v850h344v-6l72 -72v-206zM570 260v-260h276v800h-278v-284h-188v284h-294v-800h302v260h182z" />
    <glyph glyph-name="i" unicode="i" horiz-adv-x="509" 
d="M407 825v-6l72 -72v-844h-328l-72 72h-6v850h334zM98 800v-800h284v800h-284z" />
    <glyph glyph-name="j" unicode="j" horiz-adv-x="804" 
d="M723 833v-6l72 -72v-596q-14 -145 -109 -211t-267 -66q-111 0 -232 49l-70 69l-4 2l-4 2v323q125 -49 186 -49q79 0 102 67v488h326zM422 808v-466q-27 -89 -127 -89q-66 0 -161 37v-270q100 -41 210 -41q160 0 250 60.5t104 196.5v572h-276z" />
    <glyph glyph-name="k" unicode="k" horiz-adv-x="910" 
d="M463 48v-145h-336l-72 72h-6v850h338v-6l72 -72v-18l60 96h352l-4 -6l73 -72l-250 -411l249 -433h-354l-72 72h-5zM522 0h304l-236 412l236 388h-292l-172 -272v272h-288v-800h292v256z" />
    <glyph glyph-name="l" unicode="l" horiz-adv-x="785" 
d="M723 275l72 -72v-300h-668l-72 72h-6v850h326v-6l72 -72v-466h276v-6zM698 256h-348v544h-276v-800h624v256z" />
    <glyph glyph-name="m" unicode="m" horiz-adv-x="1132" 
d="M456 747l108 -199l148 277h338v-6l72 -72v-844h-312l-44 44l-17 -44h-238l-68 68v-68h-316l-72 72h-6v850h334l6 -11zM450 0h208l99 260v-260h268v800h-298l-178 -332l-181 332h-294v-800h272v260z" />
    <glyph glyph-name="n" unicode="n" horiz-adv-x="941" 
d="M435 109v-206h-308l-72 72h-6v850h352l8 -13l65 -65l91 -148v226h294v-6l72 -72v-844h-338l-72 72h-5zM530 0h304v800h-244v-332l-204 332h-312v-800h264v320z" />
    <glyph glyph-name="o" unicode="o" horiz-adv-x="987" 
d="M571 417q0 18 -8.5 19.5t-19.5 3.5q-106 -19 -106 -103v-2q0 -17 4.5 -22t21.5 -9q109 27 109 91q0 5 -1 10v12zM11 392q0 417 440 459q248 -12 368 -161l46 -46q108 -109 132 -308q-30 -389 -453 -447q-212 22 -327 138l-45 44q-128 104 -161 304v17zM468 538
q128 -23 128 -121v-7q1 -5 1 -15q0 -89 -133 -117q-123 33 -124 132v2q0 102 128 126zM36 378q55 -351 432 -392q403 55 432 424q-48 397 -448 416q-416 -40 -416 -434v-14z" />
    <glyph glyph-name="p" unicode="p" horiz-adv-x="849" 
d="M55 -25h-6v850h325q261 0 354 -130l47 -47q76 -76 76 -211v-21q-14 -304 -408 -305v-208h-316zM346 0v208h16q380 0 392 284v20q0 288 -380 288h-300v-800h272zM342 544h13q117 0 123 -52q-5 -53 -108 -53h-14q-6 0 -14 1v104z" />
    <glyph glyph-name="q" unicode="q" horiz-adv-x="1007" 
d="M593 382q-2 17 -6.5 25.5t-26.5 10.5q-97 -14 -105 -107q2 -16 10 -20t21 -9q97 22 107 100zM49 377q20 431 433 464q246 -26 358 -171l41 -41q0 1 -1 1v0l3 -2q119 -119 124 -345q-6 -60 -21.5 -109t-42.5 -90l36 -33l-2 -2l73 -73l-176 -150l-73 73l-2 -2l-23 28
q-41 -23 -96.5 -34.5t-128.5 -11.5q-204 24 -309 129l-47 46q-134 108 -146 321v2zM486 516q127 -19 132 -136q-12 -100 -132 -124q-108 32 -128 128q7 115 128 132zM74 376q20 -356 404 -400q165 0 240 60l84 -104l140 120l-108 100q64 79 76 208q-7 412 -428 456
q-388 -31 -408 -440z" />
    <glyph glyph-name="r" unicode="r" horiz-adv-x="887" 
d="M85 -25h-6v863h284q276 0 387 -150l44 -43q80 -80 98 -215q-7 -206 -151 -257l183 -270h-328l-72 72h-4l-31 46v-118h-332zM392 0v209l140 -209h276l-176 261q155 34 163 242q-42 310 -432 310h-259v-813h288zM388 537q8 1 14.5 1.5t13.5 0.5q80 0 88 -59
q-17 -62 -90 -62q-6 0 -12.5 0.5t-13.5 1.5v117z" />
    <glyph glyph-name="s" unicode="s" horiz-adv-x="819" 
d="M725 784l72 -72v-294q-126 52 -175 52q-27 0 -28 -15q38 -22 65.5 -41t48.5 -48l50 -49q67 -67 67 -175v-21q-40 -232 -379 -232q-96 0 -231 21l-71 71q-3 1 -7 1l-2 328q166 -72 226 -72h11t11 2q-56 25 -95 64l-48 48q-52 38 -75 89.5t-23 117.5q0 268 313 268
q53 0 120.5 -9.5t149.5 -27.5v-6zM700 770q-143 32 -245 32q-288 0 -288 -243q0 -80 38 -136t121 -91q103 -43 103 -79q0 -19 -21.5 -29.5t-46.5 -10.5q-69 0 -201 58l2 -267q115 -18 209 -18q320 0 357 214v17q0 138 -120 203q-111 58 -111 108q0 39 50 39q49 0 153 -42
v245z" />
    <glyph glyph-name="t" unicode="t" horiz-adv-x="846" 
d="M783 827l72 -72v-308h-217v-544h-323l-72 72h-6v472h-134l-72 72h-6v314h758v-6zM758 808h-708v-264h212v-544h279v544h217v264z" />
    <glyph glyph-name="u" unicode="u" horiz-adv-x="924" 
d="M827 829v-6l72 -72v-514q0 -185 -91.5 -280t-269.5 -95q-184 0 -281 97l-49 48q-114 89 -135 283v539h326v-6l72 -72v-499q30 7 42 46v531h314zM538 804v-508q-17 -70 -82 -70h-3q-64 1 -79 70v508h-276v-512q37 -333 365 -333q168 0 253.5 89.5t85.5 263.5v492h-264z
" />
    <glyph glyph-name="v" unicode="v" horiz-adv-x="974" 
d="M376 825l2 -7l71 -71l65 -226l85 304h324l-2 -6l73 -72l-253 -844h-352l-72 72h-5l-276 850h340zM70 800l260 -800h320l240 800h-272l-128 -460l-132 460h-288z" />
    <glyph glyph-name="w" unicode="w" horiz-adv-x="1098" 
d="M303 821l2 -7l71 -71l8 -34l29 108h199l2 -8l68 -69l18 81h332l-2 -6l73 -72l-203 -840h-261l-72 72h-5l-9 24l-25 -96h-262l-72 72h-5l-217 846h331zM360 516l-76 280h-280l204 -796h228l64 236l80 -236h228l192 796h-280l-60 -276l-68 272h-160z" />
    <glyph glyph-name="x" unicode="x" horiz-adv-x="947" 
d="M348 825l7 -13l66 -65l36 -61l93 139h362l-4 -6l73 -72l-274 -422l266 -422h-373l-72 72h-5l-34 52l-79 -124h-350l-72 72h-9l273 429l-284 421h380zM14 800l268 -396l-256 -404h296l108 168l108 -168h320l-252 400l260 400h-304l-120 -180l-108 180h-320z" />
    <glyph glyph-name="y" unicode="y" horiz-adv-x="944" 
d="M309 825l6 -12l67 -66l39 -70l91 148h345l-3 -5l73 -73l-288 -508v-336h-304l-72 72h-6v340l-326 510h378zM-22 800l304 -476v-324h260v320l272 480h-288l-120 -196l-112 196h-316z" />
    <glyph glyph-name="z" unicode="z" horiz-adv-x="898" 
d="M819 813v-6l72 -72v-268l-194 -194h102v-6l72 -72v-292h-712l-72 72h-6v280l200 200h-130l-72 72h-6v286h746zM98 788v-236h316l-308 -308v-244h668v248h-284l304 304v236h-696z" />
    <glyph glyph-name="quoteleft" unicode="&#x2018;" horiz-adv-x="446" 
d="M201 419h-4q-135 170 -137 255v4q0 76 32 118t105 42q2 0 4.5 -0.5t4.5 -0.5h9q86 -7 121 -63l56 -56q38 -38 38 -112v-6q-2 -80 -86 -124l89 -129h-160zM317 444l-80 116q94 37 96 115v6q0 63 -33.5 97.5t-102.5 34.5q-60 0 -86 -35.5t-26 -99.5v-4q2 -78 124 -230h108z
" />
    <glyph glyph-name="quoteright" unicode="&#x2019;" horiz-adv-x="443" 
d="M68 419h-8l86 126l-19 18q-38 27 -50.5 59t-12.5 74q0 132 148 141q95 -15 130 -71l55 -55q38 -38 38 -104v-9q-3 -89 -135 -251h-160zM214 444q59 77 91.5 132.5t32.5 97.5v8q0 111 -128 130q-35 -2 -58.5 -11.5t-37 -26.5t-19 -42t-5.5 -57q0 -76 96 -115l-80 -116h108
z" />
    <glyph glyph-name="quotedblleft" unicode="&#x201c;" horiz-adv-x="651" 
d="M121 407h-6l-50 263v22q0 145 113 145h7q70 -4 102 -53l35 -36q21 79 111 93q70 -9 102 -60l56 -55q41 -41 44 -128l-52 -263h-136l-72 72h-6l-11 53l-22 -125h-143zM242 432l44 238v11q0 125 -101 131h-7q-48 0 -68 -31t-20 -89v-17l47 -243h105zM538 676
q-5 128 -104 140q-93 -15 -93 -123q0 -5 0.5 -8.5t0.5 -8.5l48 -244h100z" />
    <glyph glyph-name="quotedblright" unicode="&#x201d;" horiz-adv-x="651" 
d="M121 407h-6l-50 263v22q0 145 113 145h7q70 -4 102 -53l35 -36q21 79 111 93q70 -9 102 -60l56 -55q41 -41 44 -128l-52 -263h-136l-72 72h-6l-11 53l-22 -125h-143zM242 432l44 238v11q0 125 -101 131h-7q-48 0 -68 -31t-20 -89v-17l47 -243h105zM538 676
q-5 128 -104 140q-93 -15 -93 -123q0 -5 0.5 -8.5t0.5 -8.5l48 -244h100z" />
    <glyph glyph-name="glyph94" 
 />
    <glyph glyph-name="glyph95" 
 />
    <glyph glyph-name="glyph94" 
 />
    <glyph glyph-name="glyph95" 
 />
    <glyph glyph-name="ch254" 
 />
    <glyph glyph-name="ch255" 
 />
    <glyph glyph-name="ch256" 
 />
    <glyph glyph-name="ch257" 
 />
    <glyph glyph-name="ch258" 
 />
    <glyph glyph-name="ch259" 
 />
    <glyph glyph-name="ch260" 
 />
    <glyph glyph-name="ch261" 
 />
    <glyph glyph-name="ch262" 
 />
    <glyph glyph-name="ch263" 
 />
    <glyph glyph-name="ch264" 
 />
    <glyph glyph-name="ch265" 
 />
    <glyph glyph-name="ch266" 
 />
    <glyph glyph-name="glyph96" 
 />
    <glyph glyph-name="ch268" 
 />
    <glyph glyph-name="ch267" 
 />
    <glyph glyph-name="ch270" 
 />
    <glyph glyph-name="ch271" 
 />
    <glyph glyph-name="ch272" 
 />
    <glyph glyph-name="ch273" 
 />
    <glyph glyph-name="ch274" 
 />
    <glyph glyph-name="ch275" 
 />
    <glyph glyph-name="ch276" 
 />
    <glyph glyph-name="ch277" 
 />
    <glyph glyph-name="glyph91" 
 />
    <glyph glyph-name="glyph92" 
 />
    <glyph glyph-name="ch280" 
 />
    <glyph glyph-name="ch279" 
 />
    <glyph glyph-name="glyph89" 
 />
    <glyph glyph-name="glyph90" 
 />
    <glyph glyph-name="ch282" 
 />
    <glyph glyph-name="ch283" 
 />
    <glyph glyph-name=".null" horiz-adv-x="0" 
 />
  </font>
</defs>
</svg>
